# AST/ASF file generated using VICON BodyLanguage
# -----------------------------------------------
:version 1.10
:name VICON
:units
  mass 1.0
  length 0.45
  angle deg
:documentation
   .ast/.asf automatically generated from VICON data using
   VICON BodyBuilder and BodyLanguage model FoxedUp or BRILLIANT.MOD
:root
   order TX TY TZ RX RY RZ
   axis XYZ
   position 0 0 0  
   orientation 0 0 0 
:bonedata
  begin
     id 1 
     name lhipjoint
     direction 0.606768 -0.715223 0.346827 
     length 2.41543 
     axis 0 0 0  XYZ
  end
  begin
     id 2 
     name lfemur
     direction 0.34202 -0.939693 0  
     length 7.2778  
     axis 0 0 20  XYZ
    dof rx ry rz
    limits (-160.0 20.0)
           (-70.0 70.0)
           (-60.0 70.0)
  end
  begin
     id 3 
     name ltibia
     direction 0.34202 -0.939693 0   
     length 7.61811   
     axis 0 0 20   XYZ
    dof rx
    limits (-10.0 170.0)
  end
  begin
     id 4 
     name lfoot
     direction 0.0823924 -0.226371 0.97055   
     length 2.33618   
     axis -90 7.62852e-016 20   XYZ
    dof rx rz
    limits (-45.0 90.0)
           (-70.0 20.0)
  end
  begin
     id 5 
     name ltoes
     direction 1.53554e-011 -4.21934e-011 1   
     length 1.17015   
     axis -90 7.62852e-016 20   XYZ
    dof rx
    limits (-90.0 20.0)
  end
  begin
     id 6 
     name rhipjoint
     direction -0.6077 -0.714582 0.346516   
     length 2.4176  
     axis 0 0 0  XYZ 
  end
  begin
     id 7 
     name rfemur
     direction -0.34202 -0.939693 0   
     length 7.28127   
     axis 0 0 -20   XYZ
    dof rx ry rz
    limits (-160.0 20.0)
           (-70.0 70.0)
           (-70.0 60.0)
  end
  begin
     id 8 
     name rtibia
     direction -0.34202 -0.939693 0   
     length 7.77648   
     axis 0 0 -20   XYZ
    dof rx
    limits (-10.0 170.0)
 end
 begin
     id 9 
     name rfoot
     direction -0.0809463 -0.222398 0.97159   
     length 2.37533  
     axis -90 -7.62852e-016 -20   XYZ
    dof rx rz
    limits (-45.0 90.0)
           (-20.0 70.0)
  end
  begin
     id 10 
     name rtoes
     direction -1.53568e-011 -4.21714e-011 1   
     length 1.18972   
     axis -90 -7.62852e-016 -20   XYZ
    dof rx
    limits (-90.0 20.0)
  end
  begin
     id 11 
     name lowerback
     direction 0.010968 0.991932 -0.126297   
     length 2.21698   
     axis 0 0 0   XYZ
    dof rx ry rz
    limits (-20.0 45.0)
           (-30.0 30.0)
           (-30.0 30.0)
  end
  begin
     id 12 
     name upperback
     direction 0.0167007 0.997503 -0.0686276   
     length 2.22371   
     axis 0 0 0   XYZ
    dof rx ry rz
    limits (-20.0 45.0)
           (-30.0 30.0)
           (-30.0 30.0)
  end
  begin
     id 13 
     name thorax
     direction 0.0111721 0.999885 -0.0102878   
     length 2.25242   
     axis 0 0 0   XYZ
    dof rx ry rz
    limits (-20.0 45.0)
           (-30.0 30.0)
           (-30.0 30.0)
  end
  begin
     id 14 
     name lowerneck
     direction -0.0120265 0.990428 0.137508   
     length 1.57674   
     axis 0 0 0   XYZ
    dof rx ry rz
    limits (-20.0 45.0)
           (-30.0 30.0)
           (-30.0 30.0)
  end
  begin
     id 15 
     name upperneck
     direction 0.0175669 0.998907 0.0433089   
     length 1.5618   
     axis 0 0 0   XYZ
    dof rx ry rz
    limits (-20.0 45.0)
           (-30.0 30.0)
           (-30.0 30.0)
  end
  begin
     id 16
     name head
     direction 0.00754609 0.99997 0.00185367  
     length 1.60579  
     axis 0 0 0   XYZ
    dof rx ry rz
    limits (-20.0 45.0)
           (-30.0 30.0)
           (-30.0 30.0)
  end
  begin
     id 17 
     name lclavicle
     direction 0.885866 0.429166 -0.176231  
     length 3.44967  
     axis 0 0 0   XYZ
    dof ry rz
    limits (-20.0 10.0)
           (0.0 20.0)
  end
  begin
     id 18 
     name lhumerus
     direction 1 -4.48973e-011 -1.90255e-027   
     length 5.20607   
     axis 180 -30 -90   XYZ
    dof rx ry rz
    limits (-60.0 90.0)
           (-90.0 90.0)
           (-90.0 90.0)
  end
  begin
     id 19
     name lradius
     direction 1 -4.48956e-011 9.87925e-027   
     length 3.39961   
     axis 180 -30 -90   XYZ
    dof rx
    limits (-10.0 170.0)
  end
  begin
     id 20
     name lwrist
     direction 1 -4.48985e-011 1.73247e-026   
     length 1.6998   
     axis -9.60847e-015 90 90   XYZ
    dof ry
    limits (-180.0 0.0)
 end
  begin
     id 21 
     name lhand
     direction 1 -4.48798e-011 3.46119e-026   
     length 0.519693   
     axis -2.21073e-014 90 90   XYZ
    dof rx rz
    limits (-90.0 90.0)
           (-45.0 45.0)
  end
  begin
     id 22 
     name lfingers
     direction 1 -4.48938e-011 6.92797e-026   
     length 0.41899   
     axis -4.42155e-014 90 90   XYZ
    dof rx
    limits (0.0 90.0)
  end
  begin
     id 23
     name lthumb
     direction 0.707107 -6.34952e-011 0.707107   
     length 0.601588   
     axis -90 45 6.0103e-014   XYZ
    dof rx rz
    limits (-45.0 45.0)
           (-45.0 45.0)
  end
  begin
     id 24 
     name rclavicle
     direction -0.866736 0.456792 -0.200276   
     length 3.45032  
     axis 0 0 0   XYZ 
    dof ry rz
    limits (-10.0 20.0)
           (-20.0 0.0)
  end
  begin
     id 25 
     name rhumerus
     direction -1 -4.4897e-011 8.65094e-028  
     length 5.32214   
     axis 180 30 90   XYZ
    dof rx ry rz
    limits (-90.0 60.0)
           (-90.0 90.0)
           (-90.0 90.0)
  end
  begin
     id 26 
     name rradius
     direction -1 -4.48987e-011 1.08427e-026   
     length 3.51208   
     axis 180 30 90   XYZ
    dof rx
    limits (-10.0 170.0)
  end
  begin
     id 27 
     name rwrist
     direction -1 -4.48961e-011 1.73222e-026   
     length 1.75604   
     axis -9.60847e-015 -90 -90   XYZ
    dof ry
    limits (-180.0 0.0)
  end
  begin
     id 28
     name rhand
     direction -1 -4.48895e-011 3.46314e-026   
     length 0.586681   
     axis -2.21073e-014 -90 -90   XYZ
    dof rx rz
    limits (-90.0 90.0)
           (-45.0 45.0)
  end
  begin
     id 29
     name rfingers
     direction -1 -4.48968e-011 6.92916e-026   
     length 0.472997   
     axis -4.42155e-014 -90 -90   XYZ
    dof rx
    limits (0.0 90.0)
  end
  begin
     id 30
     name rthumb
     direction -0.707107 -6.34848e-011 0.707107   
     length 0.679133   
     axis -90 -45 -6.0103e-014   XYZ
    dof rx rz
    limits (-45.0 45.0)
           (-45.0 45.0)
  end
:hierarchy
  begin
    root lhipjoint rhipjoint lowerback
    lhipjoint lfemur
    lfemur ltibia
    ltibia lfoot
    lfoot ltoes
    rhipjoint rfemur
    rfemur rtibia
    rtibia rfoot
    rfoot rtoes
    lowerback upperback
    upperback thorax
    thorax lowerneck lclavicle rclavicle
    lowerneck upperneck
    upperneck head
    lclavicle lhumerus
    lhumerus lradius
    lradius lwrist
    lwrist lhand lthumb
    lhand lfingers
    rclavicle rhumerus
    rhumerus rradius
    rradius rwrist
    rwrist rhand rthumb
    rhand rfingers
  end

#!OML:ASF H:\Dans Jumps\Project 1\Capture day 1\Session 1\subject.ASF
:FULLY-SPECIFIED
:DEGREES
22
root 0.355857 17.5916 -13.7228 6.99088 -0.206275 -1.30101
lowerback -2.02519 -0.417609 0.130576
upperback 3.0894 -0.627888 1.66623
thorax 4.3371 -0.338049 1.61007
lowerneck -12.2737 0.392116 -1.43552
upperneck 30.2917 0.883087 0.125137
head 11.9502 0.245434 0.416558
rclavicle -6.26172e-015 -1.23246e-014
rhumerus -24.7269 -20.762 -77.0333
rradius 24.3771
rwrist 33.2534
rhand -21.0756 -27.7679
rfingers 7.12502
rthumb 5.30134 -57.6816
lclavicle -6.26172e-015 -1.23246e-014
lhumerus -21.5285 -0.823322 89.2723
lradius 19.7872
lwrist 4.4852
lhand -25.4616 -5.04261
lfingers 7.12502
lthumb 1.06578 24.9345
rfemur -13.6025 -2.57424 19.9507
rtibia 21.4361
rfoot -13.6919 -1.71459
rtoes 11.1146
lfemur -11.7153 6.40807 -18.0302
ltibia 18.0862
lfoot -11.4042 4.81982
ltoes 2.00746
23
root 0.357111 17.5904 -13.7197 6.95455 -0.224652 -1.31224
lowerback -2.0613 -0.425081 0.121758
upperback 3.07376 -0.637713 1.66716
thorax 4.34173 -0.343197 1.6152
lowerneck -12.3385 0.405061 -1.4297
upperneck 30.2824 0.903814 0.117139
head 11.9598 0.254199 0.415599
rclavicle 5.41688e-015 -1.07344e-014
rhumerus -24.7432 -20.7298 -77.0755
rradius 24.3974
rwrist 33.222
rhand -21.0703 -27.7432
rfingers 7.12502
rthumb 5.30648 -57.6567
lclavicle 5.41688e-015 -1.07344e-014
lhumerus -21.5615 -0.71658 89.2515
lradius 19.7025
lwrist 4.37747
lhand -25.5085 -5.10674
lfingers 7.12502
lthumb 1.02049 24.8706
rfemur -13.5527 -2.56597 19.955
rtibia 21.438
rfoot -13.7115 -1.7062
rtoes 11.124
lfemur -11.6687 6.4208 -18.0178
ltibia 18.1061
lfoot -11.4336 4.83815
ltoes 2.00009
24
root 0.358411 17.5892 -13.7167 6.9206 -0.239516 -1.32315
lowerback -2.09843 -0.433905 0.112504
upperback 3.05785 -0.649358 1.66886
thorax 4.34675 -0.349276 1.62126
lowerneck -12.3999 0.41789 -1.42975
upperneck 30.2721 0.92449 0.113393
head 11.9682 0.262821 0.417237
rclavicle -1.39149e-014 7.95139e-015
rhumerus -24.7641 -20.6986 -77.1159
rradius 24.418
rwrist 33.1945
rhand -21.0595 -27.7257
rfingers 7.12502
rthumb 5.31688 -57.639
lclavicle -1.39149e-014 7.95139e-015
lhumerus -21.5961 -0.608712 89.227
lradius 19.6163
lwrist 4.26649
lhand -25.5517 -5.16506
lfingers 7.12502
lthumb 0.978703 24.8124
rfemur -13.5064 -2.55788 19.9591
rtibia 21.4413
rfoot -13.7304 -1.70172
rtoes 11.1279
lfemur -11.6266 6.43191 -18.0061
ltibia 18.1269
lfoot -11.4616 4.85381
ltoes 1.98785
25
root 0.359811 17.588 -13.7135 6.88816 -0.249661 -1.33146
lowerback -2.13695 -0.444485 0.100736
upperback 3.04207 -0.663267 1.67098
thorax 4.35278 -0.356574 1.62902
lowerneck -12.4578 0.429729 -1.43069
upperneck 30.2608 0.944287 0.108363
head 11.9756 0.270801 0.418416
rclavicle 1.30204e-014 -2.38542e-015
rhumerus -24.7882 -20.6777 -77.1518
rradius 24.4302
rwrist 33.1877
rhand -21.0509 -27.7157
rfingers 7.12502
rthumb 5.32521 -57.6288
lclavicle 1.30204e-014 -2.38542e-015
lhumerus -21.6324 -0.504932 89.2006
lradius 19.5295
lwrist 4.15702
lhand -25.5902 -5.23306
lfingers 7.12502
lthumb 0.941512 24.7446
rfemur -13.4613 -2.55338 19.9602
rtibia 21.4454
rfoot -13.7486 -1.69937
rtoes 11.1251
lfemur -11.587 6.44112 -17.998
ltibia 18.1477
lfoot -11.4887 4.86606
ltoes 1.96759
26
root 0.361269 17.5869 -13.7103 6.85699 -0.25771 -1.3385
lowerback -2.17574 -0.455903 0.0884456
upperback 3.02584 -0.678255 1.67293
thorax 4.35854 -0.364417 1.63681
lowerneck -12.5128 0.440309 -1.43402
upperneck 30.2494 0.962965 0.102915
head 11.9823 0.27796 0.419697
rclavicle 6.31141e-015 -7.55382e-015
rhumerus -24.8179 -20.6552 -77.1876
rradius 24.4425
rwrist 33.1794
rhand -21.0414 -27.7149
rfingers 7.12502
rthumb 5.33436 -57.6278
lclavicle 6.31141e-015 -7.55382e-015
lhumerus -21.6694 -0.403715 89.1707
lradius 19.441
lwrist 4.04766
lhand -25.6306 -5.33268
lfingers 7.12502
lthumb 0.902509 24.6452
rfemur -13.4173 -2.54917 19.9596
rtibia 21.4497
rfoot -13.765 -1.69947
rtoes 11.1102
lfemur -11.5491 6.44819 -17.9917
ltibia 18.1683
lfoot -11.5153 4.8759
ltoes 1.95758
27
root 0.362848 17.5858 -13.707 6.82486 -0.263241 -1.34541
lowerback -2.21391 -0.467449 0.0791609
upperback 3.01076 -0.693491 1.67349
thorax 4.36511 -0.372266 1.64145
lowerneck -12.5692 0.448948 -1.43998
upperneck 30.2404 0.978963 0.0994871
head 11.9903 0.283856 0.421846
rclavicle 2.28602e-015 -1.15295e-014
rhumerus -24.8517 -20.6333 -77.2251
rradius 24.4568
rwrist 33.1588
rhand -21.0314 -27.7236
rfingers 7.12502
rthumb 5.34403 -57.6362
lclavicle 2.28602e-015 -1.15295e-014
lhumerus -21.7064 -0.312987 89.1375
lradius 19.3533
lwrist 3.94552
lhand -25.6697 -5.44769
lfingers 7.12502
lthumb 0.864736 24.5303
rfemur -13.3714 -2.54807 19.9584
rtibia 21.4543
rfoot -13.7808 -1.69877
rtoes 11.088
lfemur -11.5091 6.45442 -17.986
ltibia 18.1877
lfoot -11.5415 4.88241
ltoes 1.95109
28
root 0.364522 17.5847 -13.7036 6.79229 -0.266117 -1.35286
lowerback -2.24968 -0.479539 0.0730105
upperback 2.99429 -0.709497 1.67313
thorax 4.36883 -0.380363 1.64335
lowerneck -12.6229 0.457941 -1.44339
upperneck 30.2349 0.995417 0.0940878
head 11.9991 0.289974 0.422887
rclavicle 9.69075e-015 -1.78906e-014
rhumerus -24.8911 -20.6114 -77.2628
rradius 24.4717
rwrist 33.1251
rhand -21.0224 -27.7342
rfingers 7.12502
rthumb 5.35275 -57.6466
lclavicle 9.69075e-015 -1.78906e-014
lhumerus -21.7457 -0.228519 89.1008
lradius 19.2664
lwrist 3.84784
lhand -25.7116 -5.56318
lfingers 7.12502
lthumb 0.824279 24.415
rfemur -13.3243 -2.54714 19.9576
rtibia 21.4589
rfoot -13.7964 -1.70064
rtoes 11.0644
lfemur -11.4684 6.45788 -17.9796
ltibia 18.206
lfoot -11.5671 4.88725
ltoes 1.96197
29
root 0.366322 17.5837 -13.7001 6.75892 -0.267432 -1.35995
lowerback -2.28478 -0.491571 0.0693168
upperback 2.97848 -0.725477 1.67135
thorax 4.3728 -0.388343 1.64238
lowerneck -12.6744 0.465321 -1.44521
upperneck 30.2291 1.00978 0.0865042
head 12.0074 0.295067 0.422538
rclavicle -8.54774e-015 1.94809e-014
rhumerus -24.9341 -20.5838 -77.3019
rradius 24.4876
rwrist 33.0781
rhand -21.0222 -27.7428
rfingers 7.12502
rthumb 5.35294 -57.6552
lclavicle -8.54774e-015 1.94809e-014
lhumerus -21.7834 -0.149554 89.0605
lradius 19.18
lwrist 3.75472
lhand -25.7518 -5.6643
lfingers 7.12502
lthumb 0.785507 24.314
rfemur -13.2757 -2.54805 19.9562
rtibia 21.4632
rfoot -13.8131 -1.70302
rtoes 11.0383
lfemur -11.4261 6.4599 -17.9738
ltibia 18.2236
lfoot -11.593 4.89169
ltoes 1.97559
30
root 0.368256 17.5827 -13.6966 6.72474 -0.267254 -1.36888
lowerback -2.3207 -0.503508 0.0694344
upperback 2.96476 -0.741539 1.66967
thorax 4.37939 -0.396258 1.63936
lowerneck -12.7294 0.472633 -1.44181
upperneck 30.2258 1.0249 0.0721593
head 12.0176 0.300208 0.418888
rclavicle 3.926e-015 -8.54774e-015
rhumerus -24.9775 -20.5676 -77.3375
rradius 24.501
rwrist 33.0308
rhand -21.012 -27.7586
rfingers 7.12502
rthumb 5.36275 -57.6707
lclavicle 3.926e-015 -8.54774e-015
lhumerus -21.8162 -0.0646834 89.0156
lradius 19.093
lwrist 3.65095
lhand -25.792 -5.77863
lfingers 7.12502
lthumb 0.746625 24.1998
rfemur -13.2256 -2.54812 19.9568
rtibia 21.4672
rfoot -13.831 -1.70829
rtoes 11.0156
lfemur -11.3825 6.4614 -17.9659
ltibia 18.2411
lfoot -11.6191 4.89551
ltoes 1.99112
